<svg id="Layer_1" data-name="Layer 1" xmlns="http://www.w3.org/2000/svg" viewBox="0 0 72 72"><defs><style>.cls-1,.cls-3,.cls-4,.cls-5{fill:none;}.cls-2{clip-path:url(#clip-path);}.cls-3,.cls-4,.cls-5{stroke:#0081c8;}.cls-3,.cls-4{stroke-miterlimit:10;}.cls-3{stroke-width:3px;}.cls-4,.cls-5{stroke-linecap:round;stroke-width:2px;}.cls-5{stroke-linejoin:round;}</style><clipPath id="clip-path"><path class="cls-1" d="M0 0h72v72H0z"/></clipPath></defs><title>rowing</title><g class="cls-2"><circle class="cls-3" cx="44.85" cy="15.89" r="5.5"/><path class="cls-4" d="M49.75 30.8l5.57-2.27"/><path d="M58.35 28.62c0 .36-1.25.76-3.58.94a39 39 0 0 1-9.83-.68c-2-.37-4.27-.94-6.5-1.47-.56-.14-1.1-.24-1.64-.34L36 27h-.62a.14.14 0 0 1-.09 0H35l-.47.12.25-.07-.07.08-.15.15c-.11.11-.25.34-.38.49a17.14 17.14 0 0 0-1.55 3.12c-.48 1.19-.92 2.48-1.33 3.82s-.8 2.72-1.2 4.16l-.62 2.2a4.32 4.32 0 0 0-.18 1.36 1.73 1.73 0 0 0 .16.71.7.7 0 0 0 .33.32 1.69 1.69 0 0 0 .35.16 3.19 3.19 0 0 0 .46.11H31.72a2.76 2.76 0 0 0 .79-.28 6.54 6.54 0 0 0 1-.76 17.53 17.53 0 0 0 2.09-2.31c1.37-1.73 2.6-3.62 4.15-5.45a14.88 14.88 0 0 1 1.32-1.37A6.86 6.86 0 0 1 43 32.28a4.26 4.26 0 0 1 3.1-.13 5 5 0 0 1 2.07 1.51l.08.08v.07c2.85 4.37 4.82 8 6.19 10.58.67 1.28 1.17 2.3 1.47 3s.43 1.14.26 1.28-.58 0-1.26-.51a20.76 20.76 0 0 1-2.46-2.41c-2-2.17-4.54-5.54-7.65-9.41l.12.15c-.09 0-.19-.17-.24-.17h-.06c0 .08.08-.12.11-.23s0-.09 0-.1v.22a1.61 1.61 0 0 0 .05.25 3.34 3.34 0 0 0-.58.52 11.25 11.25 0 0 0-.82 1c-1.14 1.54-2.29 3.51-3.74 5.55a21.43 21.43 0 0 1-2.63 3.11 11.59 11.59 0 0 1-1.9 1.48 8 8 0 0 1-2.71 1l-.8.07H30.44l-.71-.09a8.46 8.46 0 0 1-1.41-.31 7.19 7.19 0 0 1-1.41-.62 6.16 6.16 0 0 1-2.39-2.41 7.11 7.11 0 0 1-.84-3.07 9.65 9.65 0 0 1 .4-3.17l.63-2.16c.42-1.45.86-2.91 1.34-4.33s1-2.83 1.62-4.21a20.38 20.38 0 0 1 2.32-4.09 12.46 12.46 0 0 1 .91-1l.59-.5c.1-.08.19-.16.31-.24l.41-.23.42-.21.21-.1H33l.28-.08.47-.09H35.28c.49 0 .83.09 1.25.14l1.06.23c.66.17 1.3.35 1.87.54 2.34.76 4.34 1.51 6.22 2.09 7.47 2.36 12.47 2.66 12.47 3.51"/><path class="cls-4" d="M7.92 47.32L49.75 30.8M62.3 51.61H8.63"/><path class="cls-5" d="M7.9 55.65c4.68 0 4.68 6.74 9.35 6.74s4.68-6.74 9.36-6.74 4.68 6.74 9.36 6.74 4.68-6.74 9.36-6.74 4.68 6.74 9.36 6.74 4.68-6.74 9.36-6.74"/></g></svg>