<svg id="Layer_1" data-name="Layer 1" xmlns="http://www.w3.org/2000/svg" viewBox="0 0 72 72"><defs><style>.cls-1,.cls-3,.cls-4{fill:none;}.cls-2{clip-path:url(#clip-path);}.cls-3{stroke:#0081c8;stroke-miterlimit:10;stroke-width:3px;}.cls-4{stroke:#0b7fc2;stroke-linecap:round;stroke-linejoin:round;stroke-width:1.9px;}</style><clipPath id="clip-path"><path class="cls-1" d="M0 0h72v72H0z"/></clipPath></defs><title>swimming</title><g class="cls-2"><circle class="cls-3" cx="48.1" cy="28.09" r="5.5"/><path d="M38 30.28c-.7.18-1.61-1.52-3-3.85a9.88 9.88 0 0 0-2.68-3.07 3 3 0 0 0-1.59-.48 6.32 6.32 0 0 0-2.2.42 32.93 32.93 0 0 0-5.08 2.54c-1.62.94-3.13 1.82-4.46 2.49-2.66 1.37-4.54 1.88-4.91 1.3s.77-2.07 2.87-4.14a43.46 43.46 0 0 1 4-3.44 22.48 22.48 0 0 1 6-3.42 9.81 9.81 0 0 1 4.21-.57 7.23 7.23 0 0 1 4 1.71 8.9 8.9 0 0 1 2.14 2.77 12.61 12.61 0 0 1 1 2.55c.77 3.13.43 5.05-.19 5.2"/><path class="cls-4" d="M5 39c2.59 0 2.59 6.22 5.17 6.22S12.76 39 15.35 39s2.59 6.22 5.17 6.22S23.1 39 25.69 39s2.59 6.22 5.18 6.22S33.46 39 36 39M36.16 39c2.59 0 2.59 6.22 5.17 6.22S43.92 39 46.5 39s2.59 6.22 5.17 6.22S54.26 39 56.85 39s2.59 6.22 5.18 6.22S64.62 39 67.21 39"/></g></svg>